<svg id="e2qfHxXCTd91" xmlns="http://www.w3.org/2000/svg" xmlns:xlink="http://www.w3.org/1999/xlink" viewBox="0 0 14031 9921" shape-rendering="geometricPrecision" text-rendering="geometricPrecision">
<style><![CDATA[
#e2qfHxXCTd93_to {animation: e2qfHxXCTd93_to__to 3000ms linear 1 normal forwards}@keyframes e2qfHxXCTd93_to__to { 0% {transform: translate(45289.025382px,118343.744771px)} 16.666667% {transform: translate(45289.025382px,118343.744771px)} 30% {transform: translate(45289.025382px,59888.652351px)} 33.333333% {transform: translate(45254.03347px,59862.26109px)} 100% {transform: translate(45254.03347px,59862.26109px)}} #e2qfHxXCTd910_to {animation: e2qfHxXCTd910_to__to 3000ms linear 1 normal forwards}@keyframes e2qfHxXCTd910_to__to { 0% {transform: translate(29683.673828px,106762.518008px)} 26.666667% {transform: translate(29683.673828px,106762.518008px)} 43.333333% {transform: translate(29683.673828px,55721.242188px)} 100% {transform: translate(29683.673828px,55721.242188px)}}
]]></style>
<defs><linearGradient id="e2qfHxXCTd93-fill" x1="0" y1="0.5" x2="1" y2="0.5" spreadMethod="pad" gradientUnits="objectBoundingBox" gradientTransform="translate(0 0)"><stop id="e2qfHxXCTd93-fill-0" offset="0%" stop-color="#050640"/><stop id="e2qfHxXCTd93-fill-1" offset="98%" stop-color="#2561d1"/></linearGradient><linearGradient id="e2qfHxXCTd94-fill" x1="0" y1="0.5" x2="1" y2="0.5" spreadMethod="pad" gradientUnits="objectBoundingBox" gradientTransform="translate(0 0)"><stop id="e2qfHxXCTd94-fill-0" offset="0%" stop-color="#050640"/><stop id="e2qfHxXCTd94-fill-1" offset="98%" stop-color="#2561d1"/></linearGradient><linearGradient id="e2qfHxXCTd95-fill" x1="0" y1="0.5" x2="1" y2="0.5" spreadMethod="pad" gradientUnits="objectBoundingBox" gradientTransform="translate(0 0)"><stop id="e2qfHxXCTd95-fill-0" offset="0%" stop-color="#050640"/><stop id="e2qfHxXCTd95-fill-1" offset="98%" stop-color="#2561d1"/></linearGradient><linearGradient id="e2qfHxXCTd96-fill" x1="0" y1="0.5" x2="1" y2="0.5" spreadMethod="pad" gradientUnits="objectBoundingBox" gradientTransform="translate(0 0)"><stop id="e2qfHxXCTd96-fill-0" offset="0%" stop-color="#050640"/><stop id="e2qfHxXCTd96-fill-1" offset="98%" stop-color="#2561d1"/></linearGradient><linearGradient id="e2qfHxXCTd97-fill" x1="0" y1="0.5" x2="1" y2="0.5" spreadMethod="pad" gradientUnits="objectBoundingBox" gradientTransform="translate(0 0)"><stop id="e2qfHxXCTd97-fill-0" offset="0%" stop-color="#050640"/><stop id="e2qfHxXCTd97-fill-1" offset="98%" stop-color="#2561d1"/></linearGradient><linearGradient id="e2qfHxXCTd98-fill" x1="0" y1="0.5" x2="1" y2="0.5" spreadMethod="pad" gradientUnits="objectBoundingBox" gradientTransform="translate(0 0)"><stop id="e2qfHxXCTd98-fill-0" offset="0%" stop-color="#050640"/><stop id="e2qfHxXCTd98-fill-1" offset="98%" stop-color="#2561d1"/></linearGradient><linearGradient id="e2qfHxXCTd99-fill" x1="0" y1="0.5" x2="1" y2="0.5" spreadMethod="pad" gradientUnits="objectBoundingBox" gradientTransform="translate(0 0)"><stop id="e2qfHxXCTd99-fill-0" offset="0%" stop-color="#050640"/><stop id="e2qfHxXCTd99-fill-1" offset="98%" stop-color="#2561d1"/></linearGradient><linearGradient id="e2qfHxXCTd910-fill" x1="0" y1="0.5" x2="1" y2="0.5" spreadMethod="pad" gradientUnits="objectBoundingBox" gradientTransform="translate(0 0)"><stop id="e2qfHxXCTd910-fill-0" offset="0%" stop-color="#050640"/><stop id="e2qfHxXCTd910-fill-1" offset="98%" stop-color="#2561d1"/></linearGradient><linearGradient id="e2qfHxXCTd911-fill" x1="0" y1="0.5" x2="1" y2="0.5" spreadMethod="pad" gradientUnits="objectBoundingBox" gradientTransform="translate(0 0)"><stop id="e2qfHxXCTd911-fill-0" offset="0%" stop-color="#050640"/><stop id="e2qfHxXCTd911-fill-1" offset="98%" stop-color="#2561d1"/></linearGradient><linearGradient id="e2qfHxXCTd912-fill" x1="0" y1="0.5" x2="1" y2="0.5" spreadMethod="pad" gradientUnits="objectBoundingBox" gradientTransform="translate(0 0)"><stop id="e2qfHxXCTd912-fill-0" offset="0%" stop-color="#050640"/><stop id="e2qfHxXCTd912-fill-1" offset="98%" stop-color="#2561d1"/></linearGradient><linearGradient id="e2qfHxXCTd913-fill" x1="0" y1="0.5" x2="1" y2="0.5" spreadMethod="pad" gradientUnits="objectBoundingBox" gradientTransform="translate(0 0)"><stop id="e2qfHxXCTd913-fill-0" offset="0%" stop-color="#050640"/><stop id="e2qfHxXCTd913-fill-1" offset="98%" stop-color="#2561d1"/></linearGradient><linearGradient id="e2qfHxXCTd914-fill" x1="0" y1="0.5" x2="1" y2="0.5" spreadMethod="pad" gradientUnits="objectBoundingBox" gradientTransform="translate(0 0)"><stop id="e2qfHxXCTd914-fill-0" offset="0%" stop-color="#050640"/><stop id="e2qfHxXCTd914-fill-1" offset="98%" stop-color="#2561d1"/></linearGradient><linearGradient id="e2qfHxXCTd915-fill" x1="0" y1="0.5" x2="1" y2="0.5" spreadMethod="pad" gradientUnits="objectBoundingBox" gradientTransform="translate(0 0)"><stop id="e2qfHxXCTd915-fill-0" offset="0%" stop-color="#050640"/><stop id="e2qfHxXCTd915-fill-1" offset="98%" stop-color="#2561d1"/></linearGradient></defs><g transform="matrix(.1 0 0-.1 0 9935.25734)"><g id="e2qfHxXCTd93_to" transform="translate(45289.025382,118343.744771)"><path d="M44450,69979c-363-22-464-30-675-54-466-52-1047-164-1480-285-543-152-1061-341-1510-550-1078-502-1977-1122-2804-1935-426-419-765-816-1129-1320-494-685-952-1562-1247-2385-397-1112-588-2212-587-3380c1-1263,239-2495,710-3680c356-896,894-1810,1506-2560c460-563,935-1034,1496-1485c793-637,1734-1174,2685-1532c1131-425,2280-634,3490-634c1030,0,2026,153,2975,457c921,296,1703,670,2486,1190c1053,700,1950,1580,2671,2622c269,390,476,741,696,1182c179,358,258,533,378,842c452,1159,679,2368,679,3613c0,1267-234,2485-707,3685-139,351-411,913-608,1255-561,976-1283,1846-2152,2594-598,514-1271,960-1991,1320-348,174-585,278-997,436-82,32-489,168-600,201-196,58-298,85-495,133-113,27-221,52-240,56-19,3-87,17-150,30-397,82-843,143-1205,166-88,5-230,14-315,19-178,11-695,11-880-1Z" transform="translate(-44903.998047,-60083.566406)" fill="url(#e2qfHxXCTd93-fill)"/></g><path d="M64985,65953c-653-14-970-25-980-33-6-5-338-37-736-70-858-71-816-66-834-93-8-12-75-260-149-552-74-291-371-1461-661-2600-289-1138-595-2342-679-2675-166-653-252-1001-262-1066l-6-41l93-7c52-3,681-13,1399-21c718-9,1544-19,1835-24c308-4,548-4,572,2c38,8,44,13,53,45c13,48,187,969,196,1042c6,49,13,61,63,114l56,58l335-7c184-4,367-8,405-9c39,0,156,3,260,7l190,9l53-54l53-54l23-175c13-96,45-345,72-554c43-336,51-382,70-401c20-21,26-22,670-29c614-7,2472,0,2482,10c2,2,8,22,12,43c5,31-22,157-142,658-431,1796-1312,5473-1409,5884-65,276-72,300-91,300-6,0-30,9-52,19-28,14-205,45-551,100-429,67-726,111-756,111-4,0-9,9-12,20-4,15-14,20-39,20-18,0-312,7-653,15s-651,14-690,13c-38-1-124-3-190-5Zm699-2479c7-25,307-1735,326-1857l13-79-55-55-55-54-384,11-384,12-52,51c-29,28-53,58-53,67s97,446,215,970l216,955l52,53l51,52l52-51c29-29,55-62,58-75Z" fill="url(#e2qfHxXCTd94-fill)"/><path d="M15477,65744c-1-1-135-5-297-8-1239-28-2257-181-3120-470-74-25-227-70-340-101-732-199-1334-477-1975-913-423-287-944-698-1273-1004-360-334-789-870-1061-1327-81-135-291-521-291-535c0-3-26-58-58-123-153-312-319-750-451-1189-207-694-317-1411-351-2306-13-344,4-860,46-1353c123-1472,460-3110,869-4235c365-1001,865-1847,1406-2376c291-284,865-797,1434-1279c232-197,975-797,1560-1259c165-131,372-294,460-364c228-181,365-303,570-513c209-213,323-359,400-514c70-140,89-212,83-326-6-125-41-191-178-332-168-175-321-278-580-390-602-262-1316-384-1965-337-634,46-1318,247-2000,587-214,107-318,166-785,441-1393,822-1308,774-1369,779-48,4-64,1-111-25-81-43-81-46-45-517c8-104,40-518,70-920c159-2105,360-4715,415-5400c23-281,36-396,55-480c35-147,62-238,92-305c13-30,26-74,29-98c2-24,10-56,17-72c7-18,174-169,437-397c234-202,526-456,650-563c274-239,352-303,500-412c960-708,2174-1134,3600-1262c618-56,1389-56,2160,0c1384,99,2461,358,3360,809c71,36,139,65,150,65c27,0,88,31,175,90c39,26,349,228,690,450c711,462,804,524,935,629c593,475,1166,1378,1559,2459c365,1004,646,2244,836,3687c219,1674,276,3076,169,4155-111,1117-381,1929-822,2477-103,127-334,331-697,614-839,655-1671,1161-3015,1833-652,325-791,407-1040,604-122,97-387,362-472,472-180,233-312,522-354,775-21,132-22,384,0,535c69,486,329,1077,634,1440c156,186,391,400,552,501c230,146,436,225,720,277c138,25,162,26,480,26c297,1,352-2,490-22c330-48,718-140,1040-245c58-19,346-119,640-222s728-254,965-336c348-121,435-155,460-179c43-42,105-61,172-53c60,7,69,16,54,56-8,20-6,36,5,64c9,20,18,71,21,112c3,42,59,344,124,671c133,664,177,917,214,1225c112,944,107,1850-16,2885-29,249-49,384-189,1275-70,451-131,842-135,870-4,27-13,61-20,76-13,24-760,638-910,747-176,128-484,298-730,402-799,340-1875,546-3330,635-248,16-1309,47-1318,39Z" transform="translate(0 0.000001)" fill="url(#e2qfHxXCTd95-fill)"/><path d="M81025,65160c-418-12-592-21-1830-100-599-38-1381-87-1736-109s-655-44-666-48c-36-13-120-118-136-170-11-35-19-133-27-353-18-498-30-2333-25-3875c3-792,8-2430,11-3640s10-2780,15-3490c8-1212,4-5115-6-5400-2-71-7-454-10-850s-7-837-10-980-7-453-10-690c-3-236-7-563-10-725s-10-558-15-880-12-706-15-855c-3-148-10-481-15-740-5-258-13-605-17-770-12-471-8-2160,5-2540c30-826,79-1503,138-1875c18-114,87-267,192-425c145-218,273-310,707-508c138-63,309-143,380-177c121-59,135-63,205-65c67-2,90-9,215-63c329-141,529-198,1030-296c562-110,1547-248,1975-277c245-16,723-6,949,20c657,78,1295,260,1914,547c1167,541,2505,1614,3552,2848c805,950,1409,1982,1744,2981c210,628,324,1184,393,1925c20,214,16,1067-5,1300-131,1395-375,2596-687,3385-209,526-461,980-734,1320-147,184-234,265-591,560-783,646-855,707-855,729c0,24,124,131,570,492c560,454,570,462,676,582c348,390,654,955,872,1607c121,360,238,896,317,1450c31,215,75,595,75,645c0,11,10,28,22,39c21,20,21,29,29,398c4,208,13,586,20,841c29,1080-39,1985-212,2822-266,1285-765,2337-1512,3188-469,534-1176,1039-1963,1400-957,441-2025,690-3364,787-452,32-1102,47-1555,35Zm3803-6961c128-13,250-42,314-75c56-27,209-169,234-216c18-35,18-119-1-193-38-148-192-406-389-651-204-255-396-457-1129-1187l-740-738-55,53-54,53l5,535c5,527-1,939-29,2045l-6,240l53,52l54,51l580,17c319,8,591,17,605,19c65,8,472,5,558-5Zm52-11617c194-42,248-68,363-181c117-113,131-140,130-256-2-212-121-481-384-870-231-341-353-487-1317-1577l-713-808h-45c-24,0-44,4-44,9s-20,6-44,4c-36-4-46-2-54,13-6,12-12,337-16,834-3,448-8,943-11,1100s-8,553-11,880c-3,328-9,625-14,660l-8,65l52,52l51,52l390,11c437,11,942,29,995,34c19,2,159,2,310,1c230-3,290-6,370-23Z" transform="translate(.000001 0)" fill="url(#e2qfHxXCTd96-fill)"/><path d="M98425,64730c-589-13-1202-50-1810-110-469-46-2445-271-2471-281-40-14-64-38-81-77-8-20-43-332-89-790-41-416-113-1139-159-1607-109-1090-269-2708-390-3935-52-531-133-1352-180-1825-79-798-212-2144-580-5860-80-808-186-1882-236-2385-239-2419-237-2401-256-2415-16-12-18-39-24-257-6-208-25-426-133-1508-70-696-219-2183-332-3305-112-1122-236-2362-276-2755-66-663-71-718-57-760c12-38,20-47,49-56c41-14,53-14,1270-59c514-19,1036-39,1160-45c124-5,522-21,885-35s1070-41,1570-60c1881-72,1960-75,1998-66c56,13,87,38,108,85c16,38,33,292,150,2317l132,2274l56,59l56,58l310-6c171-4,350-11,399-16s345-12,657-16l568-7l49-51l49-51l13-205c6-113,60-1073,120-2135c77-1396,104-1936,97-1950-16-31-13-145,5-180c8-17,18-72,22-124s13-108,21-126c12-31,17-33,76-40c61-7,1228,0,1624,10c105,3,485,7,845,10s752,7,870,10s521,7,895,10s778,8,897,11l218,6l40-36c31-28,48-36,78-36c50,0,54,3,102,92c41,76,49-56-96,1563-102,1147-207,2302-399,4395-80,866-197,2138-260,2825-63,688-164,1790-225,2450s-142,1542-180,1960-120,1300-180,1960c-61,660-133,1441-160,1735-28,294-75,801-105,1125-31,325-78,829-105,1120-60,641-134,1441-195,2095-88,960-176,1905-225,2430-28,294-82,873-120,1285-38,413-83,894-99,1070-17,176-55,590-86,920-36,388-61,614-70,640-21,53-117,154-158,166-37,9-1998,286-2302,324-1074,134-2202,190-3350,165Zm1453-9953c13-150,34-407,47-572c14-165,52-633,85-1040c54-676,165-2037,225-2780c134-1647,174-2141,225-2775l60-735-52-52-52-53h-821-821l-54,55-55,55l113,938c62,515,153,1268,202,1672c127,1052,352,2920,405,3360c24,206,72,600,105,875s72,595,86,710c13,116,36,300,49,410l25,200l52,52l52,53l51-50l51-51l22-272Z" transform="translate(0 0.000001)" fill="url(#e2qfHxXCTd97-fill)"/><path d="M111145,64600c-829-16-1301-70-1940-220-137-32-276-61-307-64-113-12-147-46-125-124s18-308-28-1972c-3-102-7-266-10-365s-7-270-10-380c-42-1534-51-1913-90-3745-3-135-7-342-10-460s-10-521-15-895-13-858-16-1075c-19-1124-25-5999-10-7235c3-225,8-808,11-1295s7-1085,10-1330s7-755,10-1135c21-2565,44-4172,95-6510c21-965,28-1181,39-1235c13-64-248-51,2526-125c308-8,639-17,735-20c241-8,1108-31,2015-55c418-10,843-22,945-25c429-13,2191-52,2775-61c395-6,658,3,819,27c100,15,317,68,332,80c7,6,16,24,19,41c4,16,21,60,39,97l31,66l4,580c2,319-2,1010-9,1535-10,797-10,1025,1,1380c21,633,18,2316-4,2875-21,533-40,904-72,1420-42,681-64,1048-80,1355-9,162-21,314-27,338-12,48-30,57-113,55-27-1-84-2-125-2-41-1-505,23-1030,54-1437,84-1621,93-1926,101l-282,6-52,53-53,53l6,2814c3,1547,8,2878,11,2958s8,440,11,800s7,880,10,1155s10,1027,15,1670c15,1692,38,4355,45,4965c19,1845,28,2615,33,2906c4,182,3,355-1,384-8,46-17,60-75,122l-67,69-330,89c-181,50-397,103-480,119-387,76-900,126-1530,150-372,15-1264,20-1720,11Z" fill="url(#e2qfHxXCTd98-fill)"/><path d="M122665,64550c-829-16-1301-70-1940-220-137-32-276-61-307-64-113-12-147-46-125-124c6-20,12-81,14-134c4-79-14-853-42-1828-3-96-7-260-10-365-3-104-7-280-10-390-44-1580-51-1874-90-3745-3-135-7-342-10-460s-10-521-15-895-13-858-16-1075c-19-1124-25-6036-10-7245c3-220,8-798,11-1285s7-1085,10-1330s7-753,10-1130c21-2576,44-4186,95-6515c21-966,28-1181,39-1235c13-64-248-51,2526-125c308-8,639-17,735-20c241-8,1108-31,2015-55c418-10,843-22,945-25c446-13,2167-51,2775-61c395-6,658,3,819,27c100,15,317,68,332,80c7,6,16,24,19,41c4,16,21,60,39,97l31,66l3,613l3,613l23,9c21,8,24,17,29,82c8,107,9,4597,1,4836l-7,202h-24c-15,0-26,8-32,23-4,12-11,112-15,222-8,266-31,701-61,1190-42,681-64,1048-80,1355-9,162-21,314-27,338-12,48-30,57-113,55-27-1-84-2-125-2-41-1-505,23-1030,54-1437,84-1621,93-1926,101l-282,6-52,53-53,53l6,2814c3,1547,8,2878,11,2958s8,435,11,790s7,877,10,1160s10,1037,15,1675c15,1670,38,4341,45,4965c17,1694,28,2613,33,2906c4,182,3,355-1,384-8,46-17,60-75,122l-67,69-330,89c-181,50-397,103-480,119-387,76-900,126-1530,150-372,15-1264,20-1720,11Z" transform="translate(.000001 0)" fill="url(#e2qfHxXCTd99-fill)"/><g id="e2qfHxXCTd910_to" transform="translate(29683.673828,106762.518008)"><path d="M29609,61456c-2-2-85-6-184-9-643-22-1349-181-1962-443-710-303-1327-723-1859-1266-295-301-523-589-753-953-468-739-767-1597-856-2461-79-765-5-1543,215-2269c231-761,603-1442,1127-2065c140-166,503-525,681-674c1200-998,2725-1463,4272-1300c496,52,1024,183,1525,379c160,62,630,295,780,385c751,454,1359,1029,1831,1731c475,708,776,1479,913,2339c73,453,84,1015,31,1499-93,848-378,1676-823,2391-247,396-496,710-826,1041-930,930-2138,1506-3451,1644-172,18-650,41-661,31Z" transform="translate(-29683.673828,-55721.242187)" fill="url(#e2qfHxXCTd910-fill)"/></g><path d="M60400,57239c-140-4-365-15-500-24-280-18-1666-131-1723-141-23-3-43-14-52-27-15-23-19-42-730-2837-251-987-470-1844-486-1905-16-60-50-193-75-295-26-102-111-437-189-745-164-640-262-1044-271-1109l-6-44l53-6c30-4,817-15,1749-26c932-10,1777-21,1876-24c171-4,246,2,264,21c9,9,210,1062,210,1100c0,16,19,45,58,85l57,60l340-7c187-4,354-9,370-10c17-2,131,2,254,7l223,11l54-55l55-54l69-539c39-297,72-550,75-562c3-13,17-31,32-40c26-17,114-18,1580-18c1083,0,1555,3,1563,11c27,27,9,122-123,674-75,311-182,754-237,985s-123,512-151,625c-47,192-168,695-564,2352-149,620-165,696-166,780-1,51-4,118-7,148-6,50-9,55-34,58-14,2-29,9-32,17s-68,281-146,607-143,601-146,610-28,28-57,42c-42,19-153,40-562,104-611,97-610,96-850,122-523,54-1083,70-1775,49Zm1125-3330c84-481,161-920,171-977l18-103-55-55-54-54-385,11-385,12-52,50c-29,28-53,58-53,67s97,446,215,970l216,955l52,53l52,52l53-53l53-54l154-874Z" transform="translate(.000001 0)" fill="url(#e2qfHxXCTd911-fill)"/><path d="M67088,56651c-36-3-70-10-75-14-14-14-20-1180-23-4167-2-2047,1-2873,8-2892c17-43,40-45,272-30c85,6,404,16,708,23l554,12l55-55l55-56-13-158c-9-103-14-321-14-614c0-536,13-2704,20-3235c3-203,7-809,10-1345s7-1216,10-1510s7-913,10-1375s7-1144,10-1515c10-1420,15-2114,20-2960c5-861,9-989,26-1021c22-43,17-42,1714-50c891-4,1641-10,1666-14c26-4,63-2,87,4c39,11,43,15,58,67c10,35,13,66,8,87-4,17-7,100-6,182c3,186,39,1770,47,2035c3,107,12,515,20,905c8,391,17,807,20,925s7,321,10,450s8,332,10,450c3,118,17,721,30,1340c14,619,34,1519,45,2000s27,1177,35,1545c8,369,17,769,20,890s12,526,20,900s22,995,30,1380l16,700l52,52l52,53l867,54c786,49,871,56,914,75c25,12,58,21,73,21c14,0,43,5,63,10c34,10,37,14,47,63c5,29,12,126,16,217c5,168,19,526,55,1470c30,797,97,2540,130,3420c16,432,35,911,41,1065s8,314,4,355c-8,86-34,144-67,154-23,7-616,19-1518,30-250,4-592,8-760,11-316,5-602,9-1835,25-401,5-874,12-1050,15s-518,7-760,10c-242,4-701,10-1020,15-612,10-660,10-767,1Z" transform="translate(0 0.000001)" fill="url(#e2qfHxXCTd912-fill)"/><path d="M42460,47840c-523-19-832-42-1725-125-379-35-782-71-895-81-249-20-277-26-291-62-11-27-13-441-4-642c2-52,7-513,10-1025c3-511,7-1040,10-1175s7-596,10-1025s7-949,10-1155s7-685,10-1065c3-379,7-913,10-1185s7-729,10-1015s7-718,10-960s10-872,16-1399c6-528,14-979,18-1003c11-55,48-109,86-125c20-9,81-13,180-13c258,0,1739,15,1975,20c124,3,542,7,930,10s869,7,1070,10s628,7,950,10c673,6,1386,13,2010,20c239,3,707,7,1040,10c770,6,1224,15,1258,24c41,11,73,86,83,196c4,50,10,243,13,430c8,402,33,1604,41,1925c3,124,10,446,15,715c5,270,12,558,16,642c7,188-4,259-44,274-33,13-69,14-2202,44-223,4-621,10-884,15l-479,9-54,53-53,53v3625c1,2708-2,3633-11,3658-8,24-24,39-60,57-178,91-900,191-1719,240-306,19-1048,27-1360,15Z" transform="translate(0 0.000001)" fill="url(#e2qfHxXCTd913-fill)"/><path d="M57540,47773c-489-15-998-40-1385-69-555-40-2583-214-2606-222-26-10-85-76-108-119-6-12-473-1837-1037-4055-563-2218-1045-4112-1070-4208s-54-211-63-255c-10-44-81-327-159-630-78-302-181-707-231-900-113-441-300-1212-307-1270-9-62,3-133,24-139c9-3,251-8,537-10c286-3,693-8,905-11c494-7,1808-23,2465-30c281-3,609-7,730-10c246-5,1557-20,1735-20c87,1,123,5,145,17c50,27,79,96,109,258c15,80,70,368,121,640c165,869,175,924,175,961c0,55,23,98,82,155l53,52l545-15c532-14,978-12,1270,7l135,8l51-51l52-52l82-635c128-996,158-1224,165-1242c4-9,23-22,43-29c21-6,46-20,57-30c58-52-100-49,2482-49c2321,0,2709,3,2745,22c10,4,22,27,29,51c26,95,11,170-234,1187-356,1480-475,1973-862,3590-64,267-168,701-231,965-229,956-347,1447-430,1795-47,195-110,457-140,583-57,238-127,531-220,920-30,127-77,324-104,437s-137,574-245,1025-200,834-206,851c-10,33-36,44-104,44-18,0-39,7-46,17-8,9-28,22-46,29-17,8-233,45-480,84-246,39-518,82-603,95-985,157-1383,200-2240,246-184,10-1368,19-1580,12Zm1288-4338c32-182,42-268,42-350c0-144,7-184,34-195c23-8,2,103,328-1759l119-685-55-54-54-55-589,17c-323,9-611,19-639,22-45,4-56,11-101,57l-51,52l50,220c27,121,166,738,309,1370c143,633,282,1251,310,1375l51,225l51,53l52,52l51-52l51-53l41-240Z" transform="translate(0 0.000001)" fill="url(#e2qfHxXCTd914-fill)"/><path d="M24505,47561c-31-5-43-12-54-36-13-26-15-597-16-4495c0-4300,4-6296,15-6900c4-222,8-291,19-310c8-14,14-38,13-53-3-36,26-49,169-76c253-49,430-59,1064-66c1043-10,4392-17,4504-10l113,7l14,34c8,18,14,44,14,57c0,14,16,39,40,62c23,23,42,52,45,69c9,50,32,376,70,966c50,772,83,1268,96,1447l12,152l51,50l51,50l260-11c239-9,1018-4,1160,7c369,31,1008,66,1050,58c50-9,475,25,970,76c110,12,286,28,391,36c208,16,214,17,261,52c22,16,91,38,214,69c383,94,822,257,1249,462c247,118,367,209,481,362c407,551,629,1483,679,2855c20,557,9,1294-25,1735-82,1041-296,1825-643,2352-92,139-217,292-288,354-328,282-694,432-1149,469-38,3-378,19-755,36-541,24-698,29-746,20-44-8-242-8-700-1-351,5-855,11-1119,15-264,3-637,7-830,10-192,3-568,7-835,10s-638,7-825,10-527,7-755,10c-468,6-961,13-1375,20-154,3-453,7-665,10-663,10-1434,25-1720,35-296,10-442,11-505,1Zm6728-2056c754-260,773-267,952-357c193-96,302-175,467-336c143-141,220-236,270-337c78-155,114-334,105-519-16-298-108-577-362-1091-322-652-656-1114-1053-1457-153-131-273-206-540-334l-237-113-52,52-53,51v2255v2255l37,38c20,21,38,38,40,38s193-65,426-145Z" fill="url(#e2qfHxXCTd915-fill)"/></g></svg>
