<svg id="ehTKH9t1YL21" xmlns="http://www.w3.org/2000/svg" xmlns:xlink="http://www.w3.org/1999/xlink" viewBox="0 0 1920 1080" shape-rendering="geometricPrecision" text-rendering="geometricPrecision" style="background-color:#000"><g transform="matrix(.996422 0.317455-.346726 1.0883 204.495428-395.843366)"><g transform="translate(0 169.35634)"><rect width="2500" height="400" rx="0" ry="0" transform="translate(-290 730.40444)" fill="#3d0066" stroke-width="0"/><rect width="100" height="350" rx="50" ry="50" transform="translate(-290 555.404439)" fill="#3d0066" stroke-width="0"/><rect width="100" height="350" rx="50" ry="50" transform="translate(-90 473.208882)" fill="#3d0066" stroke-width="0"/><rect width="100" height="350" rx="50" ry="50" transform="translate(510 665.620469)" fill="#3d0066" stroke-width="0"/><rect width="100" height="350" rx="50" ry="50" transform="translate(710 580.40444)" fill="#3d0066" stroke-width="0"/><rect width="100" height="350" rx="50" ry="50" transform="translate(910 692.502428)" fill="#3d0066" stroke-width="0"/><rect width="100" height="350" rx="50" ry="50" transform="translate(1110 539.999999)" fill="#3d0066" stroke-width="0"/><rect width="100" height="350" rx="50" ry="50" transform="translate(1310 473.208882)" fill="#3d0066" stroke-width="0"/><rect width="100" height="350" rx="50" ry="50" transform="translate(1510 606.48016)" fill="#3d0066" stroke-width="0"/><rect width="100" height="350" rx="50" ry="50" transform="translate(1708.050643 467.606825)" fill="#3d0066" stroke-width="0"/><rect width="100" height="350" rx="50" ry="50" transform="matrix(1.061593 0 0 1.039032 1905.771701 457.211107)" fill="#3d0066" stroke-width="0"/><rect width="100" height="350" rx="50" ry="50" transform="translate(2110 461.317584)" fill="#3d0066" stroke-width="0"/><rect width="100" height="350" rx="50" ry="50" transform="translate(110 580.40444)" fill="#3d0066" stroke-width="0"/><rect width="100" height="350" rx="50" ry="50" transform="translate(310 606.48016)" fill="#3d0066" stroke-width="0"/></g><g transform="translate(0-96.317608)"><rect width="2500" height="400" rx="0" ry="0" transform="translate(-290-43.676898)" fill="#ffd500" stroke-width="0"/><rect width="100" height="350" rx="50" ry="50" transform="matrix(1 0 0 1.39892-188.053261 172.415923)" fill="#ffd500" stroke-width="0"/><rect width="100" height="350" rx="50" ry="50" transform="translate(9.999999 156.323102)" fill="#ffd500" stroke-width="0"/><rect width="100" height="350" rx="50" ry="50" transform="translate(209.999999 205.404442)" fill="#ffd500" stroke-width="0"/><rect width="100" height="350" rx="50" ry="50" transform="translate(409.999999 286.317585)" fill="#ffd500" stroke-width="0"/><rect width="100" height="350" rx="50" ry="50" transform="translate(609.999999 123.208883)" fill="#ffd500" stroke-width="0"/><rect width="100" height="350" rx="50" ry="50" transform="translate(809.999999 73.682843)" fill="#ffd500" stroke-width="0"/><rect width="100" height="350" rx="50" ry="50" transform="translate(1009.999999 135.511348)" fill="#ffd500" stroke-width="0"/><rect width="100" height="350" rx="50" ry="50" transform="translate(1209.999999 111.317585)" fill="#ffd500" stroke-width="0"/><rect width="100" height="350" rx="50" ry="50" transform="matrix(1 0 0 1.116881 1409.999999 15.571806)" fill="#ffd500" stroke-width="0"/><rect width="100" height="350" rx="50" ry="50" transform="translate(1609.999999 218.845421)" fill="#ffd500" stroke-width="0"/><rect width="100" height="350" rx="50" ry="50" transform="translate(1809.999999 156.323102)" fill="#ffd500" stroke-width="0"/><rect width="100" height="350" rx="50" ry="50" transform="translate(2009.999999 111.317585)" fill="#ffd500" stroke-width="0"/></g><g transform="translate(-100-640.673908)"><rect width="100" height="350" rx="50" ry="50" transform="translate(-190 749.76078)" stroke-width="0"/><rect width="100" height="350" rx="50" ry="50" transform="translate(-90.000001 1300.650717)" stroke-width="0"/><rect width="100" height="350" rx="50" ry="50" transform="translate(10 679.867648)" stroke-width="0"/><rect width="100" height="350" rx="50" ry="50" transform="translate(209.999999 763.201721)" stroke-width="0"/><rect width="100" height="350" rx="50" ry="50" transform="translate(409.999999 763.201721)" stroke-width="0"/><rect width="100" height="350" rx="50" ry="50" transform="translate(610 659.976809)" stroke-width="0"/><rect width="100" height="350" rx="50" ry="50" transform="translate(9.999999 817.565222)" stroke-width="0"/><rect width="100" height="350" rx="50" ry="50" transform="translate(610 655.673885)" stroke-width="0"/><rect width="100" height="350" rx="50" ry="50" transform="translate(209.999999 775.8365)" stroke-width="0"/><rect width="100" height="350" rx="50" ry="50" transform="translate(409.999999 630.673924)" stroke-width="0"/><rect width="100" height="350" rx="50" ry="50" transform="translate(810 763.201721)" stroke-width="0"/><rect width="100" height="350" rx="50" ry="50" transform="translate(1009.999999 655.673885)" stroke-width="0"/><rect width="100" height="350" rx="50" ry="50" transform="translate(1210 805.673924)" stroke-width="0"/><rect width="100" height="350" rx="50" ry="50" transform="translate(1409.999999 725.679402)" stroke-width="0"/><rect width="100" height="350" rx="50" ry="50" transform="translate(1610 642.565222)" stroke-width="0"/><rect width="100" height="350" rx="50" ry="50" transform="translate(1809.999999 830.673908)" stroke-width="0"/><rect width="100" height="350" rx="50" ry="50" transform="translate(2010 755.382281)" stroke-width="0"/><rect width="100" height="350" rx="50" ry="50" transform="translate(2209.999999 700.679402)" stroke-width="0"/><rect width="100" height="350" rx="50" ry="50" transform="translate(2109.999999 1271.347832)" stroke-width="0"/><rect width="100" height="350" rx="50" ry="50" transform="translate(110 1300.650717)" stroke-width="0"/><rect width="100" height="350" rx="50" ry="50" transform="translate(509.999999 1258.116013)" stroke-width="0"/><rect width="100" height="350" rx="50" ry="50" transform="translate(310 1350.030247)" stroke-width="0"/><rect width="100" height="350" rx="50" ry="50" transform="translate(709.781719 1404.963184)" stroke-width="0"/><rect width="100" height="350" rx="50" ry="50" transform="translate(910.63957 1329.65261)" stroke-width="0"/><rect width="100" height="350" rx="50" ry="50" transform="translate(1110 1350.030247)" stroke-width="0"/><rect width="100" height="350" rx="50" ry="50" transform="translate(1309.999999 1300.650717)" stroke-width="0"/><rect width="100" height="350" rx="50" ry="50" transform="translate(1510 1258.116013)" stroke-width="0"/><rect width="100" height="350" rx="50" ry="50" transform="translate(1709.784528 1224.962425)" stroke-width="0"/><rect width="100" height="350" rx="50" ry="50" transform="translate(1905.226718 1279.336381)" stroke-width="0"/></g></g><rect width="1448.549004" height="978.697449" rx="0" ry="0" transform="matrix(2.431165 0.817127-.318591 0.947892-1109.787296 517.005925)" fill="#3d0066" stroke-width="0"/><rect width="1448.549004" height="978.697449" rx="0" ry="0" transform="matrix(2.431165 0.817127-.318591 0.947892-160.998244-1604.170305)" fill="#ffd500" stroke-width="0"/></svg>
